# xmcd CD database file
#
# Track frame offsets:
#	150
#	15882
#	27867
#	41220
#	58283
#	73090
#	88028
#	99791
#	111660
#	128327
#	140767
#	162560
#	179279
#
# Disc length: 2647 seconds
#
# Revision: 0
# Processed by: cddbd v1.5.1PL2 Copyright (c) Steve Scherf et al.
# Submitted via: CDex 1.50beta9
#
DISCID=b20a550d
DTITLE=Royal Wade Kimes - Strikin' Matches
DYEAR=2006
DGENRE=Country
TTITLE0=I Come To Dance
TTITLE1=Faster Gun
TTITLE2=No Use
TTITLE3=Strikin' Matches In The Rain
TTITLE4=Look Our Your Window
TTITLE5=Jacob's Well
TTITLE6=Dancin' With You Again
TTITLE7=The Stranger And Clyde
TTITLE8=Showdown
TTITLE9=Bad Luck Is Gone
TTITLE10=Danny Play
TTITLE11=Don't Look Now
TTITLE12=I've Got Your Back
EXTD=YEAR: 2006
EXTT0=
EXTT1=
EXTT2=
EXTT3=
EXTT4=
EXTT5=
EXTT6=
EXTT7=
EXTT8=
EXTT9=
EXTT10=
EXTT11=
EXTT12=
PLAYORDER=
